<svg xmlns="http://www.w3.org/2000/svg" xmlns:xlink="http://www.w3.org/1999/xlink" width="500" zoomAndPan="magnify" viewBox="0 0 375 374.999991" height="500" preserveAspectRatio="xMidYMid meet" version="1.0"><defs><g/><clipPath id="578bc140fd"><path d="M 48 124 L 156 124 L 156 198 L 48 198 Z M 48 124 " clip-rule="nonzero"/></clipPath><clipPath id="ae99f70bde"><path d="M 92.097656 88.738281 L 155.164062 126.492188 L 95.835938 225.589844 L 32.773438 187.835938 Z M 92.097656 88.738281 " clip-rule="nonzero"/></clipPath><clipPath id="5b08bd46c3"><path d="M 92.097656 88.738281 L 155.164062 126.492188 L 95.835938 225.589844 L 32.773438 187.835938 Z M 92.097656 88.738281 " clip-rule="nonzero"/></clipPath><clipPath id="e0d0c97249"><path d="M 227 182 L 323 182 L 323 277 L 227 277 Z M 227 182 " clip-rule="nonzero"/></clipPath><clipPath id="9a885a4d2e"><path d="M 322.78125 182.320312 L 343.746094 252.769531 L 233.042969 285.710938 L 212.078125 215.265625 Z M 322.78125 182.320312 " clip-rule="nonzero"/></clipPath><clipPath id="897c79c05f"><path d="M 343.71875 252.675781 L 322.753906 182.230469 L 212.050781 215.171875 L 233.015625 285.621094 Z M 343.71875 252.675781 " clip-rule="nonzero"/></clipPath></defs><g fill="#000000" fill-opacity="1"><g transform="translate(65.836511, 235.951367)"><g><path d="M 19.265625 -40.546875 L 19.828125 -2.90625 L 8.453125 -1.234375 L 7.875 -38.875 L -2.609375 -37.328125 L -2.78125 -47.328125 L 29.578125 -52.078125 L 29.75 -42.078125 Z M 19.265625 -40.546875 "/></g></g></g><g fill="#000000" fill-opacity="1"><g transform="translate(96.329849, 231.476611)"><g><path d="M 16.078125 -50.96875 C 22.398438 -51.894531 27.179688 -50.75 30.421875 -47.53125 C 33.671875 -44.3125 35.347656 -38.566406 35.453125 -30.296875 L 35.5 -27.984375 C 35.570312 -22.484375 35.023438 -17.910156 33.859375 -14.265625 C 32.703125 -10.628906 30.832031 -7.796875 28.25 -5.765625 C 25.675781 -3.742188 22.296875 -2.425781 18.109375 -1.8125 C 11.828125 -0.882812 7.039062 -2.035156 3.75 -5.265625 C 0.457031 -8.492188 -1.234375 -14.222656 -1.328125 -22.453125 L -1.390625 -24.765625 C -1.453125 -30.273438 -0.894531 -34.859375 0.28125 -38.515625 C 1.457031 -42.171875 3.332031 -45.003906 5.90625 -47.015625 C 8.488281 -49.035156 11.878906 -50.351562 16.078125 -50.96875 Z M 16.953125 -11.671875 L 17.625 -11.765625 C 19.414062 -12.023438 20.769531 -12.773438 21.6875 -14.015625 C 22.613281 -15.265625 23.226562 -16.925781 23.53125 -19 C 23.84375 -21.082031 23.976562 -23.515625 23.9375 -26.296875 L 23.890625 -28.59375 C 23.859375 -31.363281 23.65625 -33.726562 23.28125 -35.6875 C 22.90625 -37.65625 22.238281 -39.113281 21.28125 -40.0625 C 20.332031 -41.007812 18.957031 -41.347656 17.15625 -41.078125 L 16.5 -40.984375 C 14.707031 -40.722656 13.351562 -39.972656 12.4375 -38.734375 C 11.519531 -37.492188 10.90625 -35.828125 10.59375 -33.734375 C 10.28125 -31.648438 10.144531 -29.222656 10.1875 -26.453125 L 10.234375 -24.15625 C 10.265625 -21.394531 10.46875 -19.03125 10.84375 -17.0625 C 11.21875 -15.09375 11.878906 -13.632812 12.828125 -12.6875 C 13.785156 -11.738281 15.160156 -11.398438 16.953125 -11.671875 Z M 16.953125 -11.671875 "/></g></g></g><g fill="#000000" fill-opacity="1"><g transform="translate(133.413208, 226.034802)"><g><path d="M 11 -28.046875 L 16.21875 -28.8125 C 16.96875 -28.925781 17.722656 -29.179688 18.484375 -29.578125 C 19.242188 -29.984375 19.878906 -30.597656 20.390625 -31.421875 C 20.898438 -32.253906 21.109375 -33.398438 21.015625 -34.859375 L 20.984375 -35.515625 C 20.921875 -37.023438 20.632812 -38.117188 20.125 -38.796875 C 19.625 -39.472656 19.015625 -39.882812 18.296875 -40.03125 C 17.578125 -40.175781 16.835938 -40.191406 16.078125 -40.078125 L 10.875 -39.3125 Z M 11.1875 -18.046875 L 11.4375 -1.671875 L 0.0625 -0.015625 L -0.6875 -47.640625 L 15.4375 -50 C 17.4375 -50.300781 19.425781 -50.429688 21.40625 -50.390625 C 23.394531 -50.359375 25.21875 -49.953125 26.875 -49.171875 C 28.539062 -48.398438 29.882812 -47.097656 30.90625 -45.265625 C 31.9375 -43.441406 32.460938 -40.878906 32.484375 -37.578125 L 32.515625 -36.234375 C 32.546875 -32.359375 31.894531 -29.28125 30.5625 -27 C 29.226562 -24.726562 27.523438 -22.972656 25.453125 -21.734375 L 33.015625 -4.84375 L 20.734375 -3.046875 L 14.359375 -18.515625 Z M 11.1875 -18.046875 "/></g></g></g><g fill="#000000" fill-opacity="1"><g transform="translate(167.800641, 220.988606)"><g><path d="M 34.671875 -52.828125 L 35.421875 -5.203125 L 23.4375 -3.4375 L 10.109375 -27.8125 L 10.53125 -18.671875 L 10.859375 -1.59375 L 0.0625 -0.015625 L -0.6875 -47.640625 L 11.296875 -49.390625 L 24.609375 -25.046875 L 24.125 -34.140625 L 23.875 -51.25 Z M 34.671875 -52.828125 "/></g></g></g><g fill="#000000" fill-opacity="1"><g transform="translate(205.483096, 215.458882)"><g><path d="M -0.6875 -47.640625 L 28.671875 -51.953125 L 28.84375 -41.953125 L 10.875 -39.3125 L 11.015625 -30.984375 L 25.984375 -33.1875 L 26.09375 -23.171875 L 11.109375 -20.984375 L 11.265625 -11.6875 L 29.25 -14.328125 L 29.421875 -4.3125 L 0.0625 -0.015625 Z M -0.6875 -47.640625 "/></g></g></g><g fill="#000000" fill-opacity="1"><g transform="translate(236.575531, 210.896212)"><g><path d="M 16.078125 -50.96875 C 22.398438 -51.894531 27.179688 -50.75 30.421875 -47.53125 C 33.671875 -44.3125 35.347656 -38.566406 35.453125 -30.296875 L 35.5 -27.984375 C 35.570312 -22.484375 35.023438 -17.910156 33.859375 -14.265625 C 32.703125 -10.628906 30.832031 -7.796875 28.25 -5.765625 C 25.675781 -3.742188 22.296875 -2.425781 18.109375 -1.8125 C 11.828125 -0.882812 7.039062 -2.035156 3.75 -5.265625 C 0.457031 -8.492188 -1.234375 -14.222656 -1.328125 -22.453125 L -1.390625 -24.765625 C -1.453125 -30.273438 -0.894531 -34.859375 0.28125 -38.515625 C 1.457031 -42.171875 3.332031 -45.003906 5.90625 -47.015625 C 8.488281 -49.035156 11.878906 -50.351562 16.078125 -50.96875 Z M 16.953125 -11.671875 L 17.625 -11.765625 C 19.414062 -12.023438 20.769531 -12.773438 21.6875 -14.015625 C 22.613281 -15.265625 23.226562 -16.925781 23.53125 -19 C 23.84375 -21.082031 23.976562 -23.515625 23.9375 -26.296875 L 23.890625 -28.59375 C 23.859375 -31.363281 23.65625 -33.726562 23.28125 -35.6875 C 22.90625 -37.65625 22.238281 -39.113281 21.28125 -40.0625 C 20.332031 -41.007812 18.957031 -41.347656 17.15625 -41.078125 L 16.5 -40.984375 C 14.707031 -40.722656 13.351562 -39.972656 12.4375 -38.734375 C 11.519531 -37.492188 10.90625 -35.828125 10.59375 -33.734375 C 10.28125 -31.648438 10.144531 -29.222656 10.1875 -26.453125 L 10.234375 -24.15625 C 10.265625 -21.394531 10.46875 -19.03125 10.84375 -17.0625 C 11.21875 -15.09375 11.878906 -13.632812 12.828125 -12.6875 C 13.785156 -11.738281 15.160156 -11.398438 16.953125 -11.671875 Z M 16.953125 -11.671875 "/></g></g></g><g fill="#000000" fill-opacity="1"><g transform="translate(273.658895, 205.454402)"><g><path d="M 13.84375 -21.25 C 8.75 -21.195312 4.972656 -22.082031 2.515625 -23.90625 C 0.0546875 -25.726562 -1.234375 -28.796875 -1.359375 -33.109375 L -1.390625 -34.1875 C -1.578125 -38.40625 -0.320312 -42.019531 2.375 -45.03125 C 5.082031 -48.039062 9.351562 -49.972656 15.1875 -50.828125 C 21.019531 -51.679688 25.382812 -50.929688 28.28125 -48.578125 C 31.1875 -46.234375 32.6875 -42.332031 32.78125 -36.875 L 32.8125 -35.40625 L 21.4375 -33.75 C 21.394531 -36.445312 20.941406 -38.382812 20.078125 -39.5625 C 19.210938 -40.738281 17.71875 -41.171875 15.59375 -40.859375 L 15 -40.765625 C 13.375 -40.523438 12.148438 -39.925781 11.328125 -38.96875 C 10.515625 -38.007812 10.132812 -36.945312 10.1875 -35.78125 L 10.203125 -35.15625 C 10.242188 -34.300781 10.457031 -33.578125 10.84375 -32.984375 C 11.238281 -32.398438 11.988281 -31.953125 13.09375 -31.640625 C 14.207031 -31.335938 15.800781 -31.191406 17.875 -31.203125 C 22.976562 -31.265625 26.804688 -30.367188 29.359375 -28.515625 C 31.910156 -26.671875 33.257812 -23.476562 33.40625 -18.9375 L 33.4375 -17.8125 C 33.59375 -13.351562 32.242188 -9.742188 29.390625 -6.984375 C 26.535156 -4.222656 22.351562 -2.4375 16.84375 -1.625 C 11.164062 -0.789062 6.734375 -1.484375 3.546875 -3.703125 C 0.367188 -5.921875 -1.28125 -9.804688 -1.40625 -15.359375 L -1.421875 -16.328125 L 9.96875 -18 C 10.019531 -15.382812 10.546875 -13.578125 11.546875 -12.578125 C 12.554688 -11.585938 14.039062 -11.238281 16 -11.53125 L 16.609375 -11.609375 C 18.566406 -11.898438 19.941406 -12.53125 20.734375 -13.5 C 21.523438 -14.476562 21.898438 -15.535156 21.859375 -16.671875 L 21.84375 -17.28125 C 21.789062 -18.09375 21.546875 -18.789062 21.109375 -19.375 C 20.679688 -19.96875 19.898438 -20.4375 18.765625 -20.78125 C 17.628906 -21.125 15.988281 -21.28125 13.84375 -21.25 Z M 13.84375 -21.25 "/></g></g></g><g clip-path="url(#578bc140fd)"><g clip-path="url(#ae99f70bde)"><g clip-path="url(#5b08bd46c3)"><path fill="#000000" d="M 97.96875 133.179688 C 104.367188 132.871094 109.789062 136.652344 109.789062 136.652344 C 109.789062 136.652344 92.152344 136.070312 78.214844 150.28125 C 80.609375 149.242188 91.183594 150.085938 91.183594 150.085938 C 65.453125 156.78125 49.214844 195.398438 48.585938 197.171875 C 48.585938 197.171875 49.128906 172.550781 60.828125 157.589844 C 57.164062 157.734375 49.117188 160.445312 49.085938 160.585938 C 51.714844 155.925781 68.425781 139.015625 79.210938 136.898438 C 75.617188 135.175781 66.140625 136.816406 65.914062 136.789062 C 105.167969 117.246094 155.066406 126.5 155.144531 126.546875 C 155.144531 126.546875 110.308594 124.921875 97.96875 133.179688 Z M 97.96875 133.179688 " fill-opacity="1" fill-rule="nonzero"/></g></g></g><g clip-path="url(#e0d0c97249)"><g clip-path="url(#9a885a4d2e)"><g clip-path="url(#897c79c05f)"><path fill="#000000" d="M 302.113281 235.984375 C 304 229.867188 301.675781 223.675781 301.675781 223.675781 C 301.675781 223.675781 297.875 240.90625 280.65625 250.890625 C 282.253906 248.828125 284.054688 238.375 284.054688 238.375 C 271.195312 261.648438 229.761719 267.816406 227.886719 267.988281 C 227.886719 267.988281 251.878906 273.558594 269.269531 265.925781 C 268.222656 269.441406 263.601562 276.566406 263.457031 276.5625 C 268.625 275.167969 289.144531 263.164062 293.867188 253.242188 C 294.644531 257.148438 290.710938 265.921875 290.683594 266.148438 C 319.332031 232.957031 322.726562 182.324219 322.699219 182.234375 C 322.699219 182.234375 313.171875 226.078125 302.113281 235.984375 Z M 302.113281 235.984375 " fill-opacity="1" fill-rule="nonzero"/></g></g></g></svg>